# xmcd
#
# Track frame offsets:
#	150
#	19468
#	37955
#	48982
#	64797
#	80790
#	96677
#	112433
#	131103
#	145332
#
# Disc length: 2146 seconds
# Revision: 0
# Processed by: cddbd v1.5.2PL0 Copyright (c) Steve Scherf et al.
# Submitted via: dBpowerAMP V12.0
#
DISCID=9e08600a
DTITLE=Cam Cole - I See
DYEAR=2019
DGENRE=
TTITLE0=New Age Blues
TTITLE1=I See
TTITLE2=Mama
TTITLE3=Losers
TTITLE4=Tattoo Rings
TTITLE5=Myself
TTITLE6=Away
TTITLE7=Desire
TTITLE8=You Know
TTITLE9=So Blues (Delta)
EXTD=
EXTT0=
EXTT1=
EXTT2=
EXTT3=
EXTT4=
EXTT5=
EXTT6=
EXTT7=
EXTT8=
EXTT9=
PLAYORDER=
